<?xml version="1.0" standalone="no"?>
<!DOCTYPE svg PUBLIC "-//W3C//DTD SVG 20010904//EN"
 "http://www.w3.org/TR/2001/REC-SVG-20010904/DTD/svg10.dtd">
<svg version="1.0" xmlns="http://www.w3.org/2000/svg"
 width="2400.000000pt" height="2400.000000pt" viewBox="0 0 2400.000000 2400.000000"
 preserveAspectRatio="xMidYMid meet">
<metadata>
Created by potrace 1.14, written by Peter Selinger 2001-2017
</metadata>
<g transform="translate(0.000000,2400.000000) scale(0.100000,-0.100000)"
fill="#000000" stroke="none">
<path d="M6737 22604 c-1 -1 -36 -5 -77 -8 -353 -27 -699 -182 -953 -425 -271
-260 -450 -594 -566 -1058 -28 -110 -35 -146 -46 -217 -2 -15 -6 -35 -9 -45
-3 -9 -8 -38 -11 -66 -3 -27 -7 -59 -9 -70 -2 -11 -7 -49 -11 -85 -4 -36 -9
-76 -11 -90 -26 -162 -25 -827 1 -1130 1 -19 6 -73 9 -120 4 -47 9 -98 11
-115 2 -16 7 -55 10 -85 3 -30 7 -66 9 -80 3 -14 7 -47 10 -75 3 -27 10 -81
15 -120 6 -38 13 -88 16 -110 3 -22 7 -53 10 -70 3 -16 7 -47 11 -69 3 -21 8
-48 10 -60 2 -11 7 -37 10 -56 3 -19 15 -84 26 -145 11 -60 22 -121 25 -135 2
-14 16 -81 29 -150 14 -69 28 -136 31 -150 2 -14 9 -43 14 -65 5 -22 12 -51
15 -65 3 -14 21 -92 41 -175 20 -82 39 -166 43 -185 4 -19 20 -80 34 -135 15
-55 43 -161 62 -235 20 -74 42 -156 50 -181 8 -25 17 -56 19 -69 2 -13 18 -69
35 -124 17 -56 36 -121 44 -146 70 -235 136 -442 221 -697 l101 -302 -31 -8
c-16 -4 -32 -7 -35 -8 -6 -2 -40 -8 -180 -36 -81 -15 -149 -30 -380 -79 -587
-125 -1266 -308 -1830 -492 -250 -81 -660 -228 -737 -263 -17 -8 -34 -15 -37
-15 -10 0 -406 -170 -521 -223 -206 -96 -477 -237 -618 -321 -18 -10 -45 -26
-62 -35 -88 -49 -353 -224 -455 -300 -344 -257 -636 -556 -799 -819 -121 -195
-218 -437 -245 -612 -3 -19 -8 -46 -12 -60 -13 -53 -12 -355 3 -445 29 -184
94 -381 175 -528 21 -38 38 -72 38 -74 0 -2 26 -43 57 -91 207 -316 544 -638
963 -919 326 -218 752 -445 1178 -629 118 -51 147 -63 237 -99 39 -15 89 -36
112 -46 24 -11 47 -19 53 -19 6 0 18 -4 28 -9 70 -39 651 -237 997 -341 353
-106 1103 -304 1226 -324 20 -3 42 -8 50 -11 8 -3 120 -28 249 -56 129 -28
244 -52 255 -55 11 -2 36 -7 55 -10 73 -12 251 -51 256 -57 3 -3 1 -14 -4 -24
-13 -23 -162 -470 -240 -718 -102 -321 -151 -489 -245 -845 -68 -253 -158
-622 -172 -701 -3 -16 -12 -57 -20 -91 -8 -35 -17 -79 -20 -98 -3 -19 -8 -42
-10 -50 -2 -8 -7 -31 -10 -50 -3 -19 -10 -54 -16 -78 -5 -23 -12 -59 -15 -78
-3 -20 -8 -46 -10 -58 -13 -66 -69 -418 -79 -496 -3 -25 -8 -56 -10 -70 -2
-14 -7 -50 -10 -80 -3 -30 -8 -71 -10 -90 -21 -164 -38 -372 -50 -610 -12
-234 -7 -630 10 -805 17 -171 34 -307 52 -405 25 -138 25 -141 48 -235 9 -38
18 -79 21 -90 8 -42 86 -271 120 -352 45 -111 124 -263 179 -348 139 -214 353
-420 553 -532 137 -77 364 -159 490 -178 21 -3 49 -8 62 -10 53 -11 190 -19
295 -18 611 4 1333 282 2160 833 142 94 411 284 425 300 3 3 32 25 65 49 61
46 330 258 375 297 14 12 48 41 75 64 28 23 61 51 75 63 14 12 61 54 105 92
351 305 791 730 1160 1119 83 88 157 166 165 175 21 21 278 306 317 351 107
123 217 245 223 248 4 1 20 -14 36 -34 16 -20 45 -53 64 -74 19 -21 55 -62 80
-91 107 -125 347 -387 539 -588 344 -362 818 -822 1071 -1041 14 -12 50 -43
80 -70 30 -26 93 -80 140 -120 47 -40 96 -82 110 -94 133 -114 574 -449 767
-582 390 -270 859 -529 1203 -664 221 -87 444 -156 568 -176 20 -3 40 -8 44
-10 4 -3 24 -7 45 -9 21 -3 61 -9 88 -15 146 -28 510 -31 605 -5 8 2 32 6 52
9 223 33 509 161 693 309 81 65 226 216 286 297 143 193 217 343 337 680 3 8
6 21 8 28 1 7 9 36 18 65 44 143 103 464 121 657 4 41 9 89 10 105 29 289 19
890 -20 1235 -2 19 -7 64 -10 100 -3 36 -8 76 -10 90 -2 14 -7 50 -10 80 -3
30 -10 82 -15 115 -5 33 -12 83 -15 110 -17 157 -129 754 -194 1032 -17 72
-32 142 -35 155 -6 32 -89 356 -130 508 -34 127 -61 222 -123 430 -19 63 -36
122 -38 130 -2 8 -22 74 -45 145 -22 72 -56 180 -75 240 -19 61 -70 215 -113
342 -71 209 -77 233 -61 238 20 7 41 11 95 19 22 4 55 11 74 16 19 5 53 12 75
16 22 3 67 12 100 19 33 8 71 16 85 19 24 4 208 44 240 51 8 2 87 20 175 40
88 20 167 38 175 40 8 2 62 15 120 30 58 14 112 28 120 30 8 1 44 11 80 20 36
9 72 18 80 20 106 21 911 258 1025 302 22 8 48 17 59 19 10 2 37 10 60 18 22
9 111 40 196 70 188 66 364 132 407 151 17 8 34 15 37 15 3 0 85 34 183 75
709 301 1210 587 1653 945 108 86 369 341 431 419 18 24 39 48 44 55 26 29
117 158 154 218 116 192 207 423 235 598 3 19 8 46 12 60 12 52 11 346 -2 435
-46 314 -187 618 -417 905 -84 104 -331 348 -457 451 -410 334 -936 637 -1605
924 -228 98 -608 241 -895 338 -109 37 -425 137 -444 142 -6 1 -18 5 -26 8
-104 43 -982 269 -1360 352 -140 30 -273 60 -295 65 -35 8 -193 41 -265 54
-71 13 -137 27 -151 31 -14 5 -8 30 43 178 131 381 361 1126 403 1307 2 8 29
110 59 225 65 244 189 783 212 925 3 14 11 59 19 100 8 41 17 92 21 114 3 21
8 48 10 60 4 18 10 57 29 176 2 14 7 45 10 70 3 25 8 52 10 60 2 8 7 40 10 70
3 30 8 66 10 80 2 14 7 50 10 80 3 30 8 62 10 70 2 8 7 53 10 99 4 47 8 92 10
102 2 10 7 60 10 111 4 51 8 109 10 128 22 259 22 785 0 995 -1 17 -6 61 -9
99 -6 66 -30 239 -41 301 -14 78 -25 132 -30 155 -3 14 -8 38 -11 54 -2 16 -7
32 -9 36 -2 3 -6 17 -8 31 -12 61 -72 251 -113 357 -180 455 -448 773 -805
955 -132 67 -165 80 -269 110 -179 52 -318 71 -510 70 -181 0 -274 -10 -470
-49 -415 -84 -864 -271 -1365 -568 -66 -39 -121 -74 -123 -78 -2 -5 -8 -8 -13
-8 -4 0 -55 -30 -111 -67 -57 -38 -107 -70 -113 -72 -5 -2 -12 -7 -15 -11 -3
-3 -34 -26 -70 -50 -53 -35 -284 -201 -325 -232 -188 -144 -525 -415 -545
-437 -3 -3 -34 -30 -70 -60 -36 -30 -72 -62 -81 -70 -9 -9 -48 -43 -85 -76
-367 -323 -909 -859 -1284 -1270 -30 -33 -57 -62 -60 -65 -3 -3 -46 -50 -95
-105 -49 -55 -91 -102 -95 -105 -5 -5 -113 -128 -166 -189 -16 -19 -40 -46
-52 -60 l-24 -26 -20 25 c-11 14 -34 41 -51 60 -18 20 -59 67 -92 105 -33 39
-66 77 -75 85 -8 8 -49 53 -90 100 -41 46 -84 94 -95 106 -11 11 -67 72 -125
135 -352 381 -738 763 -1144 1134 -23 21 -183 162 -245 215 -35 30 -69 60 -75
65 -12 11 -142 119 -166 138 -8 7 -60 48 -115 93 -616 496 -1270 898 -1800
1107 -254 100 -549 184 -710 202 -27 3 -57 8 -65 10 -39 11 -383 28 -393 19z
m273 -628 c36 -3 77 -8 90 -11 14 -3 39 -7 55 -10 644 -121 1409 -550 2305
-1294 100 -83 312 -266 360 -311 9 -8 66 -60 126 -115 189 -174 251 -233 523
-505 269 -269 504 -515 672 -705 24 -27 51 -57 59 -65 13 -13 104 -115 191
-215 179 -204 198 -229 185 -245 -11 -14 -119 -148 -156 -194 -8 -10 -27 -33
-41 -50 -108 -129 -756 -979 -839 -1103 -8 -12 -69 -97 -136 -190 -214 -297
-455 -646 -646 -934 -27 -42 -55 -76 -61 -76 -33 0 -256 -15 -282 -18 -16 -2
-73 -7 -125 -10 -52 -4 -111 -8 -130 -10 -19 -2 -73 -6 -120 -10 -47 -4 -98
-8 -115 -10 -16 -1 -66 -6 -110 -9 -44 -4 -96 -9 -115 -11 -19 -3 -64 -7 -100
-10 -36 -3 -81 -8 -100 -10 -19 -2 -60 -7 -90 -10 -64 -6 -141 -15 -190 -20
-19 -2 -57 -7 -85 -10 -85 -9 -138 -15 -175 -20 -19 -2 -60 -7 -90 -10 -30 -3
-62 -8 -70 -10 -8 -2 -46 -6 -85 -10 -38 -3 -77 -8 -85 -10 -8 -2 -37 -6 -65
-10 -27 -3 -61 -7 -75 -10 -14 -2 -47 -7 -75 -10 -27 -3 -113 -15 -190 -26
-77 -11 -156 -22 -175 -25 -19 -2 -46 -6 -60 -9 -27 -5 -63 -11 -125 -20 -23
-3 -50 -7 -60 -9 -136 -24 -246 -39 -251 -34 -19 19 -345 1033 -409 1273 -8
28 -32 118 -55 200 -23 83 -44 157 -46 165 -2 8 -21 85 -43 170 -48 187 -138
579 -146 635 -3 22 -8 47 -11 55 -6 17 -50 248 -70 370 -3 19 -7 37 -9 40 -2
3 -7 33 -10 65 -4 33 -9 62 -10 65 -2 3 -6 28 -9 55 -4 28 -8 61 -11 75 -5 25
-31 222 -41 310 -3 25 -7 59 -9 75 -2 17 -7 66 -10 110 -4 44 -9 88 -11 97
-26 143 -26 946 1 1140 4 34 11 87 20 161 3 23 10 62 15 87 5 25 12 56 14 70
17 98 77 314 97 351 5 11 7 19 5 19 -5 0 12 40 73 173 12 27 41 79 63 115 236
386 581 547 1068 498z m10305 0 c348 -40 623 -248 800 -604 44 -89 103 -236
121 -302 36 -135 62 -256 89 -420 8 -44 19 -154 32 -295 15 -170 6 -841 -12
-935 -2 -9 -6 -56 -10 -106 -4 -49 -8 -100 -10 -114 -2 -14 -7 -52 -10 -85 -4
-33 -13 -107 -21 -165 -8 -58 -17 -123 -20 -145 -2 -22 -7 -51 -9 -65 -3 -14
-7 -38 -9 -55 -16 -101 -26 -163 -30 -181 -2 -12 -7 -39 -10 -60 -4 -22 -20
-106 -36 -189 -16 -82 -31 -161 -34 -175 -2 -14 -7 -32 -10 -40 -3 -8 -7 -28
-10 -45 -2 -16 -16 -82 -31 -145 -15 -63 -28 -125 -30 -137 -2 -11 -6 -30 -9
-41 -4 -11 -8 -29 -10 -39 -2 -10 -9 -38 -16 -63 -7 -25 -14 -52 -15 -61 -21
-106 -195 -727 -290 -1034 -82 -264 -277 -844 -290 -861 -10 -14 -20 -14 -100
0 -114 19 -131 22 -295 46 -74 11 -146 22 -160 24 -69 11 -108 17 -136 20 -17
2 -66 9 -110 15 -100 15 -120 18 -224 31 -47 6 -98 12 -115 15 -16 2 -91 11
-165 20 -74 8 -152 17 -172 20 -84 11 -106 14 -183 20 -44 4 -88 9 -97 10 -9
2 -48 7 -85 10 -37 4 -79 8 -93 10 -14 2 -61 7 -105 10 -44 3 -96 8 -115 11
-20 2 -60 6 -90 9 -30 3 -80 7 -110 9 -30 3 -86 8 -125 11 -38 3 -88 8 -110
10 -22 2 -83 7 -135 10 -52 3 -108 8 -125 10 -16 2 -86 7 -155 10 -69 4 -131
12 -139 18 -7 6 -63 86 -124 177 -156 233 -237 352 -422 615 -202 287 -563
784 -585 805 -3 3 -30 39 -60 80 -30 41 -60 82 -67 90 -7 8 -87 112 -179 230
-92 118 -229 292 -305 385 l-137 170 28 35 c16 19 37 44 47 55 10 11 47 54 83
95 36 41 67 77 70 80 3 3 37 41 75 85 39 43 77 86 85 95 8 9 51 55 94 103 292
322 736 776 1015 1037 74 69 146 136 160 150 25 24 319 284 371 327 40 34 244
203 255 211 6 4 53 42 105 83 402 319 846 608 1225 797 351 174 717 289 985
308 47 4 86 7 87 8 5 4 162 -2 218 -8z m-5243 -4038 c411 -520 577 -737 904
-1183 57 -77 363 -509 418 -590 38 -55 80 -115 94 -133 l26 -34 -155 6 c-481
18 -683 21 -1369 21 -415 0 -852 -4 -970 -8 -438 -15 -520 -17 -520 -12 0 4
39 63 88 132 48 69 94 135 102 147 8 11 93 130 188 264 147 207 213 298 342
472 88 119 390 515 453 595 43 55 98 124 121 153 22 30 51 66 64 80 12 15 48
60 80 100 31 39 59 72 62 72 4 0 36 -37 72 -82z m1028 -2542 c187 -7 351 -14
565 -22 140 -6 187 -8 256 -13 9 -1 44 -43 77 -93 48 -75 268 -422 319 -504
221 -356 337 -548 520 -859 119 -202 293 -505 293 -511 0 -2 13 -25 29 -51 26
-44 115 -205 261 -473 88 -162 271 -509 380 -723 l75 -146 -83 -163 c-104
-204 -256 -493 -337 -643 -18 -33 -44 -80 -57 -105 -13 -25 -42 -76 -63 -115
-21 -38 -65 -119 -98 -180 -33 -60 -91 -163 -129 -229 -37 -65 -68 -120 -68
-121 0 -1 -52 -92 -116 -201 -64 -110 -128 -219 -142 -244 -65 -115 -506 -835
-587 -960 -30 -47 -160 -248 -214 -333 -24 -37 -51 -67 -60 -68 -9 0 -36 -2
-61 -4 -25 -1 -133 -6 -240 -10 -107 -4 -217 -9 -245 -10 -302 -13 -736 -20
-1360 -20 -753 0 -1038 5 -1630 30 -88 4 -195 8 -239 10 -43 2 -82 7 -86 12
-8 9 -258 399 -323 503 -22 36 -50 81 -63 100 -156 245 -724 1198 -724 1215 0
3 -11 22 -24 43 -23 37 -287 509 -360 645 -95 177 -141 262 -225 420 -21 39
-79 151 -129 247 l-90 175 57 110 c31 61 99 191 150 290 52 99 114 215 137
259 24 43 44 80 44 82 0 5 292 540 319 584 11 19 24 42 28 50 4 8 47 84 95
169 48 85 88 156 88 159 0 2 8 16 19 30 10 15 29 47 43 72 129 230 586 980
768 1260 37 58 96 149 130 203 36 57 68 97 78 98 56 4 408 20 527 24 33 1 188
6 345 10 157 4 287 9 289 10 6 6 1691 -2 1861 -9z m-3822 -108 c-28 -43 -268
-430 -284 -456 -8 -15 -22 -39 -32 -54 -65 -104 -122 -201 -122 -209 0 -5 -4
-9 -10 -9 -5 0 -10 -4 -10 -9 0 -5 -32 -63 -71 -128 -99 -165 -131 -218 -173
-293 -21 -36 -62 -108 -93 -160 -30 -52 -69 -120 -85 -150 -17 -30 -59 -104
-93 -165 -35 -60 -76 -135 -92 -165 -17 -30 -42 -75 -55 -100 -14 -25 -46 -83
-71 -130 -24 -47 -83 -156 -130 -243 -47 -87 -105 -195 -128 -241 -24 -47 -47
-82 -51 -80 -5 3 -18 26 -29 52 -12 26 -45 97 -74 157 -29 61 -65 137 -80 170
-15 33 -49 106 -76 163 -27 57 -49 105 -49 107 0 2 -20 45 -44 97 -24 52 -65
143 -91 203 -26 61 -63 143 -81 183 -19 41 -34 75 -34 77 0 2 -41 100 -91 217
-151 354 -361 890 -352 898 4 4 32 11 62 14 30 4 98 13 150 22 143 22 143 22
191 29 25 3 72 10 105 15 57 8 85 12 180 24 22 3 92 12 155 20 63 8 138 18
165 21 28 3 86 10 130 16 133 16 148 18 215 24 36 3 74 7 85 9 11 2 54 7 95
11 41 4 86 9 100 10 26 3 125 13 200 20 25 3 77 7 115 10 39 3 90 8 115 10
106 11 150 15 235 21 49 3 91 6 92 7 1 1 29 3 64 5 l62 3 -15 -23z m5662 7
c65 -5 169 -14 225 -20 22 -2 72 -7 110 -10 39 -3 158 -15 265 -26 107 -10
222 -22 255 -25 33 -3 71 -7 85 -10 14 -2 50 -6 80 -9 30 -4 89 -10 130 -16
41 -5 95 -11 120 -14 92 -10 172 -20 238 -29 20 -3 75 -10 122 -16 47 -6 96
-13 110 -15 14 -3 77 -12 140 -20 63 -9 126 -18 140 -21 14 -2 43 -6 65 -9 22
-3 51 -7 65 -10 14 -3 45 -8 70 -11 25 -3 49 -9 53 -13 7 -7 -9 -58 -42 -136
-5 -11 -45 -114 -91 -230 -45 -115 -88 -223 -95 -240 -7 -16 -52 -124 -100
-240 -48 -115 -93 -223 -101 -240 -77 -179 -290 -656 -344 -770 -28 -60 -72
-155 -98 -210 -26 -55 -65 -137 -87 -183 l-40 -82 -48 95 c-27 52 -70 135 -97
184 -27 49 -74 138 -106 198 -187 354 -544 978 -834 1458 -221 366 -250 414
-359 589 l-62 98 88 -7 c48 -3 113 -8 143 -10z m-8766 -407 c7 -18 35 -89 61
-158 190 -495 516 -1278 656 -1578 16 -34 29 -64 29 -67 0 -2 20 -46 44 -97
23 -51 53 -115 66 -143 58 -127 78 -170 146 -314 41 -84 74 -155 74 -157 0 -2
34 -72 76 -156 117 -237 113 -193 32 -359 -173 -355 -381 -796 -486 -1034 -22
-49 -52 -117 -67 -150 -14 -33 -33 -73 -40 -90 -148 -330 -473 -1124 -581
-1417 -21 -58 -33 -78 -47 -78 -21 0 -491 94 -747 150 -196 42 -765 182 -916
225 -49 14 -123 34 -164 46 -198 55 -610 184 -795 249 -60 21 -150 53 -200 70
-92 32 -489 188 -560 220 -22 10 -94 42 -160 71 -124 55 -488 235 -585 290
-275 155 -511 311 -704 468 -77 62 -76 61 -197 177 -232 223 -369 429 -444
664 -34 110 -45 195 -41 315 9 248 112 484 318 730 118 142 291 305 433 411
22 16 49 37 60 46 78 65 420 282 600 380 131 72 396 204 515 257 290 130 660
278 865 346 39 13 115 39 170 58 176 62 414 137 630 199 213 61 600 165 643
173 12 2 46 11 75 19 29 8 63 17 77 19 14 3 45 10 70 17 25 7 54 14 65 16 11
2 90 20 175 39 136 32 302 67 380 81 14 3 52 11 85 19 33 7 78 16 100 20 22 3
90 17 150 30 61 12 114 23 118 24 4 1 14 -14 21 -31z m11883 -13 c18 -2 52 -9
75 -14 24 -6 54 -12 68 -15 373 -72 934 -204 1325 -311 55 -15 105 -29 110
-30 6 -1 17 -5 25 -8 8 -3 29 -9 45 -13 17 -4 35 -8 40 -10 6 -2 33 -9 60 -17
210 -61 549 -170 765 -247 80 -29 156 -55 170 -60 14 -4 111 -41 215 -82 468
-185 877 -382 1230 -593 73 -43 333 -214 359 -236 6 -5 49 -38 95 -74 332
-256 575 -551 674 -820 52 -140 61 -191 61 -345 0 -154 -9 -206 -61 -345 -97
-262 -324 -542 -644 -797 -131 -104 -442 -318 -489 -336 -8 -3 -33 -18 -55
-33 -132 -88 -580 -311 -895 -444 -254 -108 -698 -276 -815 -309 -5 -2 -17 -6
-25 -9 -55 -22 -567 -181 -665 -207 -16 -4 -106 -29 -200 -55 -297 -81 -653
-168 -1030 -251 -26 -6 -25 -5 -357 -72 l-286 -59 -26 61 c-14 34 -47 120 -74
192 -121 318 -442 1092 -556 1337 -20 43 -36 80 -36 83 0 2 -16 39 -36 81 -19
43 -41 92 -49 108 -7 17 -34 74 -59 128 -25 55 -46 100 -46 102 0 3 -231 485
-329 686 -33 70 -61 133 -61 140 0 8 47 110 105 227 58 117 105 215 105 216 0
2 34 75 76 162 154 322 356 770 514 1144 45 107 90 213 100 235 22 52 240 597
313 786 l57 145 88 -18 c48 -9 102 -20 119 -23z m-10244 -3622 c13 -27 44 -86
69 -133 25 -47 67 -125 93 -175 26 -49 55 -103 65 -120 9 -16 39 -70 65 -120
27 -49 87 -160 135 -245 48 -85 101 -180 117 -210 17 -30 54 -95 83 -145 29
-49 64 -110 78 -135 45 -81 360 -613 397 -670 12 -19 55 -89 95 -155 95 -156
217 -353 269 -434 l15 -23 -90 6 c-49 4 -109 9 -134 11 -25 3 -76 7 -115 10
-38 3 -88 7 -110 9 -22 3 -76 7 -120 11 -44 3 -93 8 -110 10 -16 2 -61 7 -100
10 -38 4 -83 8 -100 10 -16 2 -61 7 -100 10 -38 4 -83 8 -100 10 -16 2 -57 6
-90 10 -33 3 -73 8 -90 10 -16 3 -50 7 -75 10 -25 2 -65 7 -90 10 -25 3 -67 8
-95 11 -27 3 -61 7 -75 9 -14 2 -47 6 -75 9 -27 4 -61 8 -75 11 -14 2 -52 7
-85 10 -32 4 -62 8 -65 10 -3 2 -36 6 -75 10 -38 3 -72 8 -75 10 -3 1 -32 6
-65 9 -33 4 -67 9 -75 11 -8 2 -33 6 -55 9 -64 8 -118 16 -145 21 -14 3 -45 8
-70 11 -25 3 -48 9 -53 13 -7 7 101 298 159 429 13 29 23 53 23 55 -1 4 19 54
67 169 25 62 62 151 81 198 19 47 41 99 48 115 8 17 52 118 98 225 93 214 230
522 300 670 24 52 70 151 102 220 70 153 114 240 120 240 2 0 15 -21 28 -47z
m8417 38 c0 -5 23 -58 51 -118 102 -216 118 -250 184 -393 133 -287 324 -723
447 -1020 33 -80 66 -158 73 -175 7 -16 34 -84 60 -150 26 -66 51 -129 56
-140 43 -96 118 -309 112 -316 -4 -4 -28 -10 -53 -13 -25 -3 -54 -8 -65 -10
-11 -2 -42 -7 -70 -10 -27 -4 -57 -9 -65 -11 -14 -3 -49 -8 -150 -21 -19 -2
-46 -6 -60 -9 -14 -3 -43 -7 -65 -10 -22 -2 -53 -6 -70 -9 -46 -7 -104 -15
-164 -22 -30 -3 -62 -7 -72 -9 -10 -2 -44 -6 -76 -10 -32 -3 -87 -10 -123 -15
-36 -5 -96 -12 -135 -16 -38 -3 -78 -8 -87 -9 -9 -2 -48 -7 -85 -10 -37 -4
-79 -8 -93 -10 -44 -6 -123 -14 -195 -20 -38 -3 -86 -8 -105 -10 -40 -5 -92
-11 -205 -20 -44 -4 -93 -9 -110 -10 -16 -2 -68 -6 -115 -10 -47 -3 -103 -8
-125 -10 -22 -2 -80 -7 -129 -11 -95 -6 -93 -9 -55 46 9 14 68 108 131 210 98
158 142 230 211 345 44 73 74 123 84 140 7 11 53 90 104 175 51 85 112 189
136 230 24 41 48 82 53 90 5 8 40 69 77 135 37 66 72 128 78 137 5 9 17 29 26
45 121 216 176 317 199 358 15 28 48 88 74 134 25 46 46 85 46 87 0 2 22 43
48 91 47 85 105 192 172 321 30 56 50 78 50 53z m-9495 -2916 c50 -8 133 -20
185 -29 52 -8 113 -17 135 -21 22 -3 54 -7 70 -10 76 -12 112 -17 135 -20 14
-2 79 -10 145 -19 66 -9 140 -19 165 -22 25 -3 56 -7 70 -9 42 -7 310 -40 405
-50 28 -3 66 -7 85 -10 19 -3 62 -7 95 -10 33 -3 76 -8 95 -10 40 -5 101 -12
178 -20 28 -3 75 -7 102 -10 28 -3 74 -8 103 -10 29 -2 79 -7 112 -10 94 -9
144 -14 235 -21 47 -3 99 -7 115 -9 274 -23 264 -22 405 -30 120 -6 126 -8
150 -34 14 -15 91 -126 172 -247 118 -177 318 -467 386 -561 7 -10 27 -39 45
-65 230 -333 817 -1110 1155 -1528 l110 -135 -28 -35 c-16 -19 -37 -44 -47
-55 -10 -11 -45 -51 -78 -90 -33 -38 -63 -72 -66 -75 -3 -3 -39 -43 -80 -90
-40 -47 -85 -97 -99 -111 -14 -15 -59 -64 -100 -110 -72 -80 -126 -139 -305
-328 -176 -186 -603 -608 -821 -811 -79 -74 -374 -333 -449 -395 -33 -28 -62
-52 -65 -55 -9 -9 -105 -87 -215 -174 -60 -48 -117 -92 -125 -99 -64 -52 -307
-225 -442 -316 -242 -163 -457 -289 -693 -406 -441 -218 -800 -318 -1140 -319
-503 -1 -856 283 -1044 839 -39 116 -92 332 -105 425 -9 66 -26 189 -31 232
-25 211 -26 783 0 1048 1 19 6 71 10 115 3 44 8 91 10 105 2 14 6 56 10 95 4
38 8 72 10 75 1 3 6 36 10 73 3 37 8 76 10 86 2 10 6 42 10 72 3 30 8 61 10
69 2 8 7 35 10 60 3 25 9 59 11 75 3 17 7 39 9 50 1 11 7 47 14 80 6 33 13 78
16 100 4 22 8 48 11 57 3 10 7 30 10 45 4 27 18 98 29 153 3 14 10 45 15 70 7
38 61 280 76 345 3 11 7 31 10 45 3 14 19 79 36 145 16 66 32 127 33 135 2 8
20 76 40 150 126 469 242 846 417 1365 l93 275 40 -6 c22 -3 81 -12 130 -19z
m10705 6 c19 -37 259 -767 333 -1016 71 -237 180 -621 191 -675 3 -14 22 -88
42 -165 50 -196 170 -737 189 -855 2 -14 8 -52 14 -85 6 -33 14 -76 17 -95 3
-19 7 -42 9 -50 2 -8 7 -35 10 -60 3 -25 10 -70 15 -100 6 -30 12 -75 15 -100
3 -25 7 -56 10 -70 3 -14 7 -45 10 -70 3 -25 7 -61 10 -80 2 -19 7 -57 10 -85
3 -27 7 -61 10 -75 2 -14 7 -63 10 -110 3 -47 8 -101 10 -120 26 -257 26 -837
0 -1055 -2 -16 -7 -57 -10 -90 -4 -33 -9 -69 -11 -80 -2 -10 -6 -37 -10 -60
-11 -78 -52 -261 -75 -335 -26 -86 -23 -76 -34 -115 -17 -62 -104 -243 -158
-331 -51 -82 -139 -192 -191 -237 -12 -10 -33 -29 -47 -41 -104 -93 -292 -171
-484 -202 -52 -8 -264 -9 -335 0 -75 8 -209 32 -262 46 -23 7 -54 14 -67 17
-49 8 -294 93 -403 139 -121 51 -345 161 -449 220 -35 20 -84 48 -109 62 -221
125 -584 374 -880 605 -129 101 -382 307 -400 327 -3 3 -36 32 -75 65 -38 33
-86 74 -105 92 -19 17 -46 41 -60 53 -177 152 -673 636 -950 926 -117 123
-380 406 -435 470 -14 16 -81 90 -129 144 -23 25 -66 74 -96 109 -30 35 -79
91 -107 124 -51 58 -52 60 -35 81 78 98 139 173 147 182 6 6 24 28 40 49 17
21 75 95 130 165 117 149 103 131 319 414 216 283 564 760 699 956 9 14 64 93
121 175 58 83 171 248 252 368 81 120 154 222 163 226 9 5 69 12 135 16 65 4
130 8 145 10 14 2 69 6 121 10 52 3 113 8 135 10 22 2 78 7 125 10 47 4 99 8
115 10 17 1 66 6 110 9 44 4 96 9 115 11 19 2 64 7 100 10 36 3 81 8 100 10
19 2 58 6 85 9 87 9 159 17 195 21 96 11 139 16 180 20 25 3 65 8 90 11 25 3
63 7 85 10 22 2 51 7 65 9 14 2 52 7 85 10 33 3 74 8 90 11 32 6 54 8 150 19
33 3 67 8 75 10 8 2 38 7 65 10 28 3 75 10 105 15 30 5 73 11 95 14 72 9 120
16 145 21 13 3 42 7 65 10 57 9 96 15 125 20 14 2 43 7 65 10 22 4 58 10 80
14 65 14 84 12 95 -8z m-6450 -398 c260 -10 1727 -10 2005 0 116 4 279 9 363
13 l153 6 -30 -44 c-17 -23 -59 -84 -93 -134 -105 -152 -261 -372 -303 -429
-22 -29 -65 -88 -95 -130 -236 -331 -972 -1286 -990 -1285 -3 1 -23 24 -45 52
-22 28 -45 56 -50 62 -6 6 -88 110 -183 231 -95 121 -179 227 -186 235 -16 20
-462 617 -484 649 -10 12 -31 42 -48 65 -47 63 -273 380 -339 476 -33 47 -85
122 -117 168 l-58 83 147 -5 c82 -3 240 -9 353 -13z"/>
<path d="M11815 13304 c-119 -18 -135 -21 -221 -50 -342 -113 -629 -363 -782
-685 -94 -196 -127 -352 -126 -589 1 -154 15 -242 64 -391 152 -466 551 -807
1039 -890 135 -23 374 -16 506 16 522 124 914 540 1004 1064 22 130 21 347 -3
468 -82 412 -346 755 -721 937 -49 24 -108 50 -130 56 -22 7 -49 16 -60 20
-131 50 -401 70 -570 44z"/>
</g>
</svg>
